Coordinates
version=1
nRows=10
nColumns=46
inDegrees=yes

Units are S.I. units (second, meters, Newtons, ...)
Angles are in degrees.

endheader
time	pelvis_tilt	pelvis_list	pelvis_rotation	pelvis_tx	pelvis_ty	pelvis_tz	bb_angle	bb_tx	bb_ty	bb_tz	hip_flexion_r	hip_adduction_r	hip_rotation_r	knee_angle_r	knee_angle_r_beta	ankle_angle_r	subtalar_angle_r	mtp_angle_r	crank_angle_r	hip_flexion_l	hip_adduction_l	hip_rotation_l	knee_angle_l	knee_angle_l_beta	ankle_angle_l	subtalar_angle_l	mtp_angle_l	crank_angle_l	lumbar_extension	lumbar_bending	lumbar_rotation	arm_flex_r	arm_add_r	arm_rot_r	elbow_flex_r	pro_sup_r	wrist_flex_r	wrist_dev_r	arm_flex_l	arm_add_l	arm_rot_l	elbow_flex_l	pro_sup_l	wrist_flex_l	wrist_dev_l
      2.50500000	    -18.04470126	      7.52084228	     10.34457995	      0.26712696	      1.14997354	     -0.25944732	      0.00000000	      0.50000000	      0.00000000	      0.25000000	     30.49249210	    -16.87270093	    -12.68601686	     30.45726686	      0.53157959	    -35.61394333	    -11.73545040	      0.00000000	      0.00000000	     83.25358947	      4.03104087	     -3.32137233	    106.81564580	      1.86428471	      1.09412079	     -3.13685453	      0.00000000	      0.00000000	    -59.12028564	      0.04077456	    -13.23168720	     83.31542709	     -5.68546257	     49.36655574	     20.65668375	     36.82562927	      0.00000000	      0.00000000	     82.61766569	    -14.73792568	     51.46681051	     41.57802883	     42.90608211	      0.00000000	      0.00000000
      2.51000000	    -18.27852711	      7.44812153	     10.69266015	      0.26638591	      1.15117791	     -0.25893556	      0.00000000	      0.50000000	      0.00000000	      0.25000000	     31.22119198	    -16.87535083	    -11.91957385	     32.16959593	      0.56146537	    -36.26570736	    -12.85899431	      0.00000000	      0.00000000	     83.36694128	      4.72434214	     -3.10517260	    105.53064424	      1.84185720	      1.81125399	     -3.28091868	      0.00000000	      0.00000000	    -59.16481125	      0.20706150	    -13.08644895	     83.38431896	     -5.98489155	     49.39138824	     20.67723931	     36.87084443	      0.00000000	      0.00000000	     82.71749724	    -14.48955191	     51.22531595	     41.87796984	     42.94936800	      0.00000000	      0.00000000
      2.51500000	    -18.69656727	      7.30836617	     10.88921093	      0.26565333	      1.15188785	     -0.25813088	      0.00000000	      0.50000000	      0.00000000	      0.25000000	     32.32559660	    -16.67816261	    -10.73704865	     34.09937640	      0.59514639	    -36.80302891	    -13.94375459	      0.00000000	      0.00000000	     83.53706953	      5.19780089	     -2.88783695	    104.14058341	      1.81759607	      2.63240515	     -3.49719428	      0.00000000	      0.00000000	    -58.96343366	      0.25184376	    -12.85485613	     83.31797760	     -6.44827680	     49.37165807	     21.09021354	     37.01925273	      0.00000000	      0.00000000	     82.59579419	    -14.29755696	     50.52362663	     42.37024343	     42.99895446	      0.00000000	      0.00000000
      2.52000000	    -18.80136333	      7.10165056	     11.18839588	      0.26499757	      1.15285795	     -0.25757305	      0.00000000	      0.50000000	      0.00000000	      0.25000000	     33.08868474	    -16.46446065	     -9.88631749	     36.15091938	      0.63095257	    -36.99736946	    -14.83382011	      0.00000000	      0.00000000	     83.25768224	      5.83142247	     -2.50389972	    102.63073640	      1.79124426	      3.52692085	     -3.83198602	      0.00000000	      0.00000000	    -59.07461220	      0.49495894	    -12.66341629	     83.44716983	     -6.81150981	     49.23526756	     21.19148634	     37.04237724	      0.00000000	      0.00000000	     82.69822997	    -14.16346942	     50.26261414	     42.64861603	     43.02902622	      0.00000000	      0.00000000
      2.52500000	    -19.06042947	      6.94673973	     11.40397237	      0.26435281	      1.15332972	     -0.25687795	      0.00000000	      0.50000000	      0.00000000	      0.25000000	     34.19563572	    -16.25727184	     -8.90885633	     38.49614995	      0.67188457	    -37.06968131	    -15.92675678	      0.00000000	      0.00000000	     82.99903578	      6.36173617	     -2.18498979	    100.99475795	      1.76269105	      4.40958765	     -4.16211251	      0.00000000	      0.00000000	    -58.98663039	      0.57142580	    -12.45112045	     83.38491002	     -7.20994506	     49.05161429	     21.42069918	     37.08607406	      0.00000000	      0.00000000	     82.75833103	    -13.95897012	     49.99888026	     42.98926617	     43.07067551	      0.00000000	      0.00000000
      2.53000000	    -19.20526768	      6.66746863	     11.55910866	      0.26386051	      1.15370043	     -0.25610459	      0.00000000	      0.50000000	      0.00000000	      0.25000000	     35.19173739	    -15.86087605	     -8.00685438	     40.85958186	      0.71313423	    -37.04040896	    -16.80258000	      0.00000000	      0.00000000	     82.50914488	      6.78375788	     -1.71776352	     99.28661833	      1.73287839	      5.31669781	     -4.56797921	      0.00000000	      0.00000000	    -58.94588021	      0.74009931	    -12.14911811	     83.34391276	     -7.44451830	     48.88551239	     21.65493901	     37.12331973	      0.00000000	      0.00000000	     82.76229109	    -13.90117923	     49.80116871	     43.19691641	     43.09451506	      0.00000000	      0.00000000
      2.53500000	    -19.80961347	      6.49180256	     11.56861143	      0.26339266	      1.15321921	     -0.25517269	      0.00000000	      0.50000000	      0.00000000	      0.25000000	     36.83516058	    -15.47646704	     -6.71364402	     43.38999867	      0.75729834	    -36.92052758	    -17.73331163	      0.00000000	      0.00000000	     82.35199156	      7.02462897	     -1.48021508	     97.35772323	      1.69921282	      6.01796996	     -5.05882896	      0.00000000	      0.00000000	    -58.41056004	      0.53666940	    -11.82453453	     82.36889375	     -8.34363590	     47.00173363	     24.18683637	     37.57803151	      0.00000000	      0.00000000	     82.19293452	    -13.55822916	     48.26466951	     44.10837347	     43.22320651	      0.00000000	      0.00000000
      2.54000000	    -19.80120039	      6.10465413	     11.64570314	      0.26308006	      1.15331734	     -0.25448246	      0.00000000	      0.50000000	      0.00000000	      0.25000000	     37.70636518	    -14.94081804	     -6.00097888	     45.82792672	      0.79984821	    -36.65383888	    -18.41907268	      0.00000000	      0.00000000	     81.54745947	      7.26243406	     -1.11951110	     95.26002834	      1.66260114	      6.38257617	     -5.98535263	      0.00000000	      0.00000000	    -58.43132762	      0.77411708	    -11.46871210	     82.47114393	     -8.38101109	     46.86038268	     24.17945193	     37.57726298	      0.00000000	      0.00000000	     82.23087162	    -13.57228075	     48.20830488	     44.14485950	     43.23361120	      0.00000000	      0.00000000
      2.54500000	    -20.22260111	      6.04800181	     11.62353026	      0.26277467	      1.15280148	     -0.25370245	      0.00000000	      0.50000000	      0.00000000	      0.25000000	     39.18441421	    -14.70984220	     -4.94808008	     48.42948915	      0.84525404	    -36.34559125	    -18.97882543	      0.00000000	      0.00000000	     80.99876934	      7.52537717	     -1.28005624	     92.79020309	      1.61949456	      5.77778395	     -8.20571018	      0.00000000	      0.00000000	    -58.02176197	      0.53677696	    -11.40893123	     82.16818930	     -8.41486368	     46.52826324	     24.16737553	     37.59665079	      0.00000000	      0.00000000	     82.06244256	    -13.50984061	     48.06689972	     44.31999130	     43.28003702	      0.00000000	      0.00000000
      2.55000000	    -20.39760799	      5.74112877	     11.50250107	      0.26257566	      1.15220459	     -0.25293377	      0.00000000	      0.50000000	      0.00000000	      0.25000000	     40.37406740	    -14.19696742	     -4.17574336	     50.95194226	      0.88927915	    -35.86734311	    -19.27095954	      0.00000000	      0.00000000	     80.16315604	      7.60899209	     -1.00908808	     90.45530009	      1.57874281	      5.71807159	     -9.62426510	      0.00000000	      0.00000000	    -57.79136260	      0.51117545	    -11.15450443	     82.05295371	     -8.28544509	     46.11233451	     24.20186645	     37.63252102	      0.00000000	      0.00000000	     81.83095500	    -13.60563098	     47.74975595	     44.56923176	     43.33403108	      0.00000000	      0.00000000
